ply
format ascii 1.0
comment Created by Blender 2.69 (sub 0) - www.blender.org, source file: 'tray.blend'
element vertex 628
property float x
property float y
property float z
property float nx
property float ny
property float nz
element face 324
property list uchar uint vertex_indices
end_header
0.152692 -0.103525 -0.040438 1.000000 0.000001 0.000000
0.152692 -0.080444 -0.040438 1.000000 0.000001 0.000000
0.152692 -0.080444 -0.026723 1.000000 0.000001 0.000000
0.152692 -0.103525 -0.026723 1.000000 0.000001 0.000000
0.152692 -0.057362 -0.040438 1.000000 0.000001 0.000000
0.152692 -0.057362 -0.026723 1.000000 0.000001 0.000000
0.152692 -0.034281 -0.040438 1.000000 0.000001 0.000000
0.152692 -0.034281 -0.026723 1.000000 0.000001 0.000000
0.152692 -0.011199 -0.040438 1.000000 0.000001 0.000000
0.152692 -0.011199 -0.026723 1.000000 0.000001 0.000000
0.152692 0.011883 -0.040438 1.000000 0.000001 0.000000
0.152692 0.011883 -0.026723 1.000000 0.000001 0.000000
0.152692 0.034964 -0.040438 1.000000 0.000001 0.000000
0.152692 0.034964 -0.026723 1.000000 0.000001 0.000000
0.152692 0.058046 -0.040438 1.000000 0.000001 0.000000
0.152692 0.058046 -0.026723 1.000000 0.000001 0.000000
0.152692 0.081128 -0.040438 1.000000 0.000001 0.000000
0.152692 0.081128 -0.026723 1.000000 0.000001 0.000000
0.152692 0.104209 -0.040438 1.000000 0.000001 0.000000
0.152692 0.104209 -0.026723 1.000000 0.000001 0.000000
0.152692 -0.103525 -0.026723 1.000000 0.000001 -0.000001
0.152692 -0.080444 -0.026723 1.000000 0.000001 -0.000001
0.152692 -0.080444 -0.013007 1.000000 0.000001 -0.000001
0.152692 -0.103525 -0.013007 1.000000 0.000001 -0.000001
0.152692 -0.057362 -0.026723 1.000000 0.000001 -0.000001
0.152692 -0.057362 -0.013007 1.000000 0.000001 -0.000001
0.152692 -0.034281 -0.026723 1.000000 0.000001 -0.000001
0.152692 -0.034281 -0.013007 1.000000 0.000001 -0.000001
0.152692 -0.011199 -0.026723 1.000000 0.000001 -0.000001
0.152692 -0.011199 -0.013007 1.000000 0.000001 -0.000001
0.152692 0.011883 -0.026723 1.000000 0.000001 -0.000001
0.152692 0.011883 -0.013007 1.000000 0.000001 -0.000001
0.152692 0.034964 -0.026723 1.000000 0.000001 -0.000001
0.152692 0.034964 -0.013007 1.000000 0.000001 -0.000001
0.152692 0.058046 -0.026723 1.000000 0.000001 -0.000001
0.152692 0.058046 -0.013007 1.000000 0.000001 -0.000001
0.152692 0.081128 -0.026723 1.000000 0.000001 -0.000001
0.152692 0.081128 -0.013007 1.000000 0.000001 -0.000001
0.152692 0.104209 -0.026723 1.000000 0.000001 -0.000001
0.152692 0.104209 -0.013007 1.000000 0.000001 -0.000001
0.152692 -0.080444 0.000708 1.000000 0.000001 -0.000001
0.152692 -0.103525 0.000708 1.000000 0.000001 -0.000001
0.152692 -0.057362 0.000708 1.000000 0.000001 -0.000001
0.152692 -0.034281 0.000708 1.000000 0.000001 -0.000001
0.152692 -0.011199 0.000708 1.000000 0.000001 -0.000001
0.152692 0.011883 0.000708 1.000000 0.000001 -0.000001
0.152692 0.034964 0.000708 1.000000 0.000001 -0.000001
0.152692 0.058046 0.000708 1.000000 0.000001 -0.000001
0.152692 0.081128 0.000708 1.000000 0.000001 -0.000001
0.152692 0.104209 0.000708 1.000000 0.000001 -0.000001
0.152692 -0.103525 0.000708 1.000000 0.000001 0.000000
0.152692 -0.080444 0.000708 1.000000 0.000001 0.000000
0.152692 -0.080444 0.014423 1.000000 0.000001 0.000000
0.152692 -0.103525 0.014423 1.000000 0.000001 0.000000
0.152692 -0.057362 0.000708 1.000000 0.000001 0.000000
0.152692 -0.057362 0.014423 1.000000 0.000001 0.000000
0.152692 -0.034281 0.000708 1.000000 0.000001 0.000000
0.152692 -0.034281 0.014423 1.000000 0.000001 0.000000
0.152692 -0.011199 0.000708 1.000000 0.000001 0.000000
0.152692 -0.011199 0.014423 1.000000 0.000001 0.000000
0.152692 0.011883 0.000708 1.000000 0.000001 0.000000
0.152692 0.011883 0.014423 1.000000 0.000001 0.000000
0.152692 0.034964 0.000708 1.000000 0.000001 0.000000
0.152692 0.034964 0.014423 1.000000 0.000001 0.000000
0.152692 0.058046 0.000708 1.000000 0.000001 0.000000
0.152692 0.058046 0.014423 1.000000 0.000001 0.000000
0.152692 0.081128 0.000708 1.000000 0.000001 0.000000
0.152692 0.081128 0.014423 1.000000 0.000001 0.000000
0.152692 0.104209 0.000708 1.000000 0.000001 0.000000
0.152692 0.104209 0.014423 1.000000 0.000001 0.000000
0.152692 -0.103525 0.014423 1.000000 0.000001 -0.000001
0.152692 -0.080444 0.014423 1.000000 0.000001 -0.000001
0.152692 -0.080444 0.028138 1.000000 0.000001 -0.000001
0.152692 -0.103525 0.028138 1.000000 0.000001 -0.000001
0.152692 -0.057362 0.014423 1.000000 0.000001 -0.000001
0.152692 -0.057362 0.028138 1.000000 0.000001 -0.000001
0.152692 -0.034281 0.014423 1.000000 0.000001 -0.000001
0.152692 -0.034281 0.028138 1.000000 0.000001 -0.000001
0.152692 -0.011199 0.014423 1.000000 0.000001 -0.000001
0.152692 -0.011199 0.028138 1.000000 0.000001 -0.000001
0.152692 0.011883 0.014423 1.000000 0.000001 -0.000001
0.152692 0.011883 0.028138 1.000000 0.000001 -0.000001
0.152692 0.034964 0.014423 1.000000 0.000001 -0.000001
0.152692 0.034964 0.028138 1.000000 0.000001 -0.000001
0.152692 0.058046 0.014423 1.000000 0.000001 -0.000001
0.152692 0.058046 0.028138 1.000000 0.000001 -0.000001
0.152692 0.081128 0.014423 1.000000 0.000001 -0.000001
0.152692 0.081128 0.028138 1.000000 0.000001 -0.000001
0.152692 0.104209 0.014423 1.000000 0.000001 -0.000001
0.152692 0.104209 0.028138 1.000000 0.000001 -0.000001
0.152692 -0.103525 0.028138 1.000000 0.000001 0.000000
0.152692 -0.080444 0.028138 1.000000 0.000001 0.000000
0.152692 -0.080444 0.041853 1.000000 0.000001 0.000000
0.152692 -0.103525 0.041853 1.000000 0.000001 0.000000
0.152692 -0.057362 0.028138 1.000000 0.000001 0.000000
0.152692 -0.057362 0.041853 1.000000 0.000001 0.000000
0.152692 -0.034281 0.028138 1.000000 0.000001 0.000000
0.152692 -0.034281 0.041853 1.000000 0.000001 0.000000
0.152692 -0.011199 0.028138 1.000000 0.000001 0.000000
0.152692 -0.011199 0.041853 1.000000 0.000001 0.000000
0.152692 0.011883 0.028138 1.000000 0.000001 0.000000
0.152692 0.011883 0.041853 1.000000 0.000001 0.000000
0.152692 0.034964 0.028138 1.000000 0.000001 0.000000
0.152692 0.034964 0.041853 1.000000 0.000001 0.000000
0.152692 0.058046 0.028138 1.000000 0.000001 0.000000
0.152692 0.058046 0.041853 1.000000 0.000001 0.000000
0.152692 0.081128 0.028138 1.000000 0.000001 0.000000
0.152692 0.081128 0.041853 1.000000 0.000001 0.000000
0.152692 0.104209 0.028138 1.000000 0.000001 0.000000
0.152692 0.104209 0.041853 1.000000 0.000001 0.000000
0.152692 -0.103525 0.041853 1.000000 0.000001 -0.000001
0.152692 -0.080444 0.041853 1.000000 0.000001 -0.000001
0.152692 -0.080444 0.055568 1.000000 0.000001 -0.000001
0.152692 -0.103525 0.055568 1.000000 0.000001 -0.000001
0.152692 -0.057362 0.041853 1.000000 0.000001 -0.000001
0.152692 -0.057362 0.055568 1.000000 0.000001 -0.000001
0.152692 -0.034281 0.041853 1.000000 0.000001 -0.000001
0.152692 -0.034281 0.055568 1.000000 0.000001 -0.000001
0.152692 -0.011199 0.041853 1.000000 0.000001 -0.000001
0.152692 -0.011199 0.055568 1.000000 0.000001 -0.000001
0.152692 0.011883 0.041853 1.000000 0.000001 -0.000001
0.152692 0.011883 0.055568 1.000000 0.000001 -0.000001
0.152692 0.034964 0.041853 1.000000 0.000001 -0.000001
0.152692 0.034964 0.055568 1.000000 0.000001 -0.000001
0.152692 0.058046 0.041853 1.000000 0.000001 -0.000001
0.152692 0.058046 0.055568 1.000000 0.000001 -0.000001
0.152692 0.081128 0.041853 1.000000 0.000001 -0.000001
0.152692 0.081128 0.055568 1.000000 0.000001 -0.000001
0.152692 0.104209 0.041853 1.000000 0.000001 -0.000001
0.152692 0.104209 0.055568 1.000000 0.000001 -0.000001
0.152692 -0.080444 0.069283 1.000000 0.000001 -0.000001
0.152692 -0.103525 0.069283 1.000000 0.000001 -0.000001
0.152692 -0.057362 0.069283 1.000000 0.000001 -0.000001
0.152692 -0.034281 0.069283 1.000000 0.000001 -0.000001
0.152692 -0.011199 0.069283 1.000000 0.000001 -0.000001
0.152692 0.011883 0.069283 1.000000 0.000001 -0.000001
0.152692 0.034964 0.069283 1.000000 0.000001 -0.000001
0.152692 0.058046 0.069283 1.000000 0.000001 -0.000001
0.152692 0.081128 0.069283 1.000000 0.000001 -0.000001
0.152692 0.104209 0.069283 1.000000 0.000001 -0.000001
0.152692 -0.103525 0.069283 1.000000 0.000001 0.000000
0.152692 -0.080444 0.069283 1.000000 0.000001 0.000000
0.152692 -0.080444 0.082998 1.000000 0.000001 0.000000
0.152692 -0.103525 0.082998 1.000000 0.000001 0.000000
0.152692 -0.057362 0.069283 1.000000 0.000001 0.000000
0.152692 -0.057362 0.082998 1.000000 0.000001 0.000000
0.152692 -0.034281 0.069283 1.000000 0.000001 0.000000
0.152692 -0.034281 0.082998 1.000000 0.000001 0.000000
0.152692 -0.011199 0.069283 1.000000 0.000001 0.000000
0.152692 -0.011199 0.082998 1.000000 0.000001 0.000000
0.152692 0.011883 0.069283 1.000000 0.000001 0.000000
0.152692 0.011883 0.082998 1.000000 0.000001 0.000000
0.152692 0.034964 0.069283 1.000000 0.000001 0.000000
0.152692 0.034964 0.082998 1.000000 0.000001 0.000000
0.152692 0.058046 0.069283 1.000000 0.000001 0.000000
0.152692 0.058046 0.082998 1.000000 0.000001 0.000000
0.152692 0.081128 0.069283 1.000000 0.000001 0.000000
0.152692 0.081128 0.082998 1.000000 0.000001 0.000000
0.152692 0.104209 0.069283 1.000000 0.000001 0.000000
0.152692 0.104209 0.082998 1.000000 0.000001 0.000000
-0.156170 -0.101937 -0.040556 -0.000000 -1.000000 -0.000000
-0.121854 -0.101937 -0.040556 -0.000000 -1.000000 -0.000000
-0.121854 -0.101937 -0.026841 -0.000000 -1.000000 -0.000000
-0.156170 -0.101937 -0.026841 -0.000000 -1.000000 -0.000000
-0.121854 -0.101937 -0.040556 0.000000 -1.000000 -0.000001
-0.087537 -0.101937 -0.040556 0.000000 -1.000000 -0.000001
-0.087537 -0.101937 -0.026841 0.000000 -1.000000 -0.000001
-0.121854 -0.101937 -0.026841 0.000000 -1.000000 -0.000001
-0.053221 -0.101937 -0.040556 -0.000000 -1.000000 -0.000001
-0.053221 -0.101937 -0.026841 -0.000000 -1.000000 -0.000001
-0.053221 -0.101937 -0.040556 -0.000000 -1.000000 -0.000000
-0.018904 -0.101937 -0.040556 -0.000000 -1.000000 -0.000000
-0.018904 -0.101937 -0.026840 -0.000000 -1.000000 -0.000000
-0.053221 -0.101937 -0.026841 -0.000000 -1.000000 -0.000000
0.015412 -0.101937 -0.040556 -0.000000 -1.000000 -0.000000
0.015412 -0.101937 -0.026840 -0.000000 -1.000000 -0.000000
0.015412 -0.101937 -0.040556 -0.000000 -1.000000 -0.000001
0.049729 -0.101937 -0.040556 -0.000000 -1.000000 -0.000001
0.049729 -0.101937 -0.026840 -0.000000 -1.000000 -0.000001
0.015412 -0.101937 -0.026840 -0.000000 -1.000000 -0.000001
0.084045 -0.101937 -0.040555 0.000000 -1.000000 -0.000001
0.084045 -0.101937 -0.026840 0.000000 -1.000000 -0.000001
0.118362 -0.101937 -0.040555 -0.000000 -1.000000 -0.000001
0.118362 -0.101937 -0.026840 -0.000000 -1.000000 -0.000001
0.152678 -0.101937 -0.040555 -0.000000 -1.000000 -0.000001
0.152678 -0.101937 -0.026840 -0.000000 -1.000000 -0.000001
-0.121854 -0.101937 -0.013125 -0.000000 -1.000000 -0.000000
-0.156170 -0.101937 -0.013125 -0.000000 -1.000000 -0.000000
-0.087537 -0.101937 -0.026841 -0.000000 -1.000000 -0.000000
-0.087537 -0.101937 -0.013125 -0.000000 -1.000000 -0.000000
-0.053221 -0.101937 -0.013125 -0.000000 -1.000000 -0.000001
-0.087537 -0.101937 -0.013125 -0.000000 -1.000000 -0.000001
-0.018904 -0.101937 -0.026840 0.000000 -1.000000 -0.000001
-0.018904 -0.101937 -0.013125 0.000000 -1.000000 -0.000001
0.015412 -0.101937 -0.013125 -0.000000 -1.000000 -0.000000
-0.018904 -0.101937 -0.013125 -0.000000 -1.000000 -0.000000
0.049729 -0.101937 -0.026840 -0.000000 -1.000000 0.000000
0.049729 -0.101937 -0.013125 -0.000000 -1.000000 0.000000
0.084045 -0.101937 -0.026840 -0.000000 -1.000000 -0.000000
0.084045 -0.101937 -0.013125 -0.000000 -1.000000 -0.000000
0.118362 -0.101937 -0.013125 -0.000000 -1.000000 -0.000001
0.084045 -0.101937 -0.013125 -0.000000 -1.000000 -0.000001
0.118362 -0.101937 -0.026840 -0.000000 -1.000000 -0.000000
0.152678 -0.101937 -0.026840 -0.000000 -1.000000 -0.000000
0.152678 -0.101937 -0.013125 -0.000000 -1.000000 -0.000000
0.118362 -0.101937 -0.013125 -0.000000 -1.000000 -0.000000
-0.156170 -0.101937 -0.013125 -0.000000 -1.000000 -0.000001
-0.121854 -0.101937 -0.013125 -0.000000 -1.000000 -0.000001
-0.121854 -0.101937 0.000590 -0.000000 -1.000000 -0.000001
-0.156170 -0.101937 0.000590 -0.000000 -1.000000 -0.000001
-0.087537 -0.101937 0.000590 -0.000000 -1.000000 -0.000001
-0.053221 -0.101937 0.000590 -0.000000 -1.000000 -0.000001
-0.018904 -0.101937 0.000590 0.000000 -1.000000 -0.000001
0.015412 -0.101937 -0.013125 -0.000000 -1.000000 -0.000001
0.015412 -0.101937 0.000590 -0.000000 -1.000000 -0.000001
0.049729 -0.101937 -0.013125 -0.000000 -1.000000 -0.000001
0.049729 -0.101937 0.000590 -0.000000 -1.000000 -0.000001
0.084045 -0.101937 0.000590 -0.000000 -1.000000 -0.000001
0.118362 -0.101937 0.000590 -0.000000 -1.000000 -0.000000
0.084045 -0.101937 0.000590 -0.000000 -1.000000 -0.000000
0.152678 -0.101937 0.000590 -0.000000 -1.000000 -0.000000
-0.121854 -0.101937 0.014305 -0.000000 -1.000000 -0.000001
-0.156170 -0.101937 0.014305 -0.000000 -1.000000 -0.000001
-0.121854 -0.101937 0.000590 -0.000000 -1.000000 -0.000000
-0.087537 -0.101937 0.000590 -0.000000 -1.000000 -0.000000
-0.087537 -0.101937 0.014305 -0.000000 -1.000000 -0.000000
-0.121854 -0.101937 0.014305 -0.000000 -1.000000 -0.000000
-0.053221 -0.101937 0.000590 -0.000000 -1.000000 -0.000000
-0.053221 -0.101937 0.014305 -0.000000 -1.000000 -0.000000
-0.018904 -0.101937 0.014305 0.000000 -1.000000 -0.000001
-0.053221 -0.101937 0.014305 0.000000 -1.000000 -0.000001
0.015412 -0.101937 0.014305 -0.000000 -1.000000 -0.000001
0.015412 -0.101937 0.000590 -0.000000 -1.000000 -0.000000
0.049729 -0.101937 0.000590 -0.000000 -1.000000 -0.000000
0.049729 -0.101937 0.014305 -0.000000 -1.000000 -0.000000
0.015412 -0.101937 0.014305 -0.000000 -1.000000 -0.000000
0.084045 -0.101937 0.014305 -0.000000 -1.000000 -0.000000
0.118362 -0.101937 0.000590 0.000000 -1.000000 -0.000001
0.118362 -0.101937 0.014305 0.000000 -1.000000 -0.000001
0.084045 -0.101937 0.014305 0.000000 -1.000000 -0.000001
0.152678 -0.101937 0.000590 -0.000000 -1.000000 -0.000001
0.152678 -0.101937 0.014305 -0.000000 -1.000000 -0.000001
-0.121854 -0.101937 0.028020 -0.000000 -1.000000 -0.000001
-0.156170 -0.101937 0.028020 -0.000000 -1.000000 -0.000001
-0.087537 -0.101937 0.014305 0.000000 -1.000000 -0.000001
-0.087537 -0.101937 0.028020 0.000000 -1.000000 -0.000001
-0.053221 -0.101937 0.028020 -0.000000 -1.000000 -0.000000
-0.087537 -0.101937 0.028020 -0.000000 -1.000000 -0.000000
-0.018904 -0.101937 0.014305 -0.000000 -1.000000 -0.000000
-0.018904 -0.101937 0.028020 -0.000000 -1.000000 -0.000000
0.015412 -0.101937 0.028020 -0.000000 -1.000000 -0.000001
-0.018904 -0.101937 0.028020 -0.000000 -1.000000 -0.000001
0.049729 -0.101937 0.014305 0.000000 -1.000000 -0.000001
0.049729 -0.101937 0.028020 0.000000 -1.000000 -0.000001
0.084045 -0.101937 0.028020 -0.000000 -1.000000 -0.000000
0.049729 -0.101937 0.028020 -0.000000 -1.000000 -0.000000
0.118362 -0.101937 0.014305 -0.000000 -1.000000 -0.000000
0.118362 -0.101937 0.028020 -0.000000 -1.000000 -0.000000
0.152679 -0.101937 0.028020 -0.000000 -1.000000 -0.000001
0.118362 -0.101937 0.028020 -0.000000 -1.000000 -0.000001
-0.121854 -0.101937 0.041735 -0.000000 -1.000000 -0.000001
-0.156170 -0.101937 0.041735 -0.000000 -1.000000 -0.000001
-0.087537 -0.101937 0.041735 0.000000 -1.000000 -0.000001
-0.053221 -0.101937 0.028020 -0.000000 -1.000000 -0.000001
-0.053221 -0.101937 0.041735 -0.000000 -1.000000 -0.000001
-0.018904 -0.101937 0.041735 -0.000000 -1.000000 -0.000001
0.015412 -0.101937 0.041735 -0.000000 -1.000000 -0.000001
0.049729 -0.101937 0.041735 0.000000 -1.000000 -0.000001
0.084045 -0.101937 0.028020 -0.000000 -1.000000 -0.000001
0.084045 -0.101937 0.041735 -0.000000 -1.000000 -0.000001
0.118362 -0.101937 0.041735 -0.000000 -1.000000 -0.000001
0.152679 -0.101937 0.041735 -0.000000 -1.000000 -0.000001
-0.156170 -0.101937 0.041735 -0.000000 -1.000000 0.000000
-0.121854 -0.101937 0.041735 -0.000000 -1.000000 0.000000
-0.121854 -0.101937 0.055450 -0.000000 -1.000000 0.000000
-0.156170 -0.101937 0.055450 -0.000000 -1.000000 0.000000
-0.087537 -0.101937 0.041735 -0.000000 -1.000000 -0.000000
-0.087537 -0.101937 0.055450 -0.000000 -1.000000 -0.000000
-0.053221 -0.101937 0.055450 -0.000000 -1.000000 -0.000001
-0.087537 -0.101937 0.055450 -0.000000 -1.000000 -0.000001
-0.053221 -0.101937 0.041735 -0.000000 -1.000000 -0.000000
-0.018904 -0.101937 0.041735 -0.000000 -1.000000 -0.000000
-0.018904 -0.101937 0.055450 -0.000000 -1.000000 -0.000000
-0.053221 -0.101937 0.055450 -0.000000 -1.000000 -0.000000
0.015412 -0.101937 0.041735 -0.000000 -1.000000 -0.000000
0.015412 -0.101937 0.055450 -0.000000 -1.000000 -0.000000
0.049729 -0.101937 0.055450 0.000000 -1.000000 -0.000001
0.015412 -0.101937 0.055450 0.000000 -1.000000 -0.000001
0.084045 -0.101937 0.055450 -0.000000 -1.000000 -0.000001
0.084045 -0.101937 0.041735 -0.000000 -1.000000 -0.000000
0.118362 -0.101937 0.041735 -0.000000 -1.000000 -0.000000
0.118362 -0.101937 0.055450 -0.000000 -1.000000 -0.000000
0.084045 -0.101937 0.055450 -0.000000 -1.000000 -0.000000
0.152679 -0.101937 0.041735 -0.000000 -1.000000 0.000000
0.152679 -0.101937 0.055450 -0.000000 -1.000000 0.000000
-0.156170 -0.101937 0.055450 -0.000000 -1.000000 -0.000001
-0.121854 -0.101937 0.055450 -0.000000 -1.000000 -0.000001
-0.121854 -0.101937 0.069165 -0.000000 -1.000000 -0.000001
-0.156170 -0.101937 0.069165 -0.000000 -1.000000 -0.000001
-0.087537 -0.101937 0.069165 -0.000000 -1.000000 -0.000001
-0.053221 -0.101937 0.069165 -0.000000 -1.000000 -0.000000
-0.087537 -0.101937 0.069165 -0.000000 -1.000000 -0.000000
-0.018904 -0.101937 0.069165 -0.000000 -1.000000 -0.000000
0.015412 -0.101937 0.069165 -0.000000 -1.000000 -0.000000
0.049729 -0.101937 0.055450 -0.000000 -1.000000 -0.000000
0.049729 -0.101937 0.069165 -0.000000 -1.000000 -0.000000
0.084045 -0.101937 0.069165 -0.000000 -1.000000 -0.000001
0.049729 -0.101937 0.069165 -0.000000 -1.000000 -0.000001
0.118362 -0.101937 0.055450 0.000000 -1.000000 -0.000001
0.118362 -0.101937 0.069165 0.000000 -1.000000 -0.000001
0.152679 -0.101937 0.055450 -0.000000 -1.000000 -0.000001
0.152679 -0.101937 0.069165 -0.000000 -1.000000 -0.000001
-0.156170 -0.101937 0.069165 -0.000000 -1.000000 -0.000000
-0.121854 -0.101937 0.069165 -0.000000 -1.000000 -0.000000
-0.121854 -0.101937 0.082880 -0.000000 -1.000000 -0.000000
-0.156170 -0.101937 0.082880 -0.000000 -1.000000 -0.000000
-0.087537 -0.101937 0.082880 -0.000000 -1.000000 -0.000000
-0.053221 -0.101937 0.069165 0.000000 -1.000000 -0.000001
-0.053221 -0.101937 0.082880 0.000000 -1.000000 -0.000001
-0.087537 -0.101937 0.082880 0.000000 -1.000000 -0.000001
-0.018904 -0.101937 0.069165 -0.000000 -1.000000 -0.000001
-0.018904 -0.101937 0.082880 -0.000000 -1.000000 -0.000001
0.015412 -0.101937 0.082880 -0.000000 -1.000000 -0.000000
-0.018904 -0.101937 0.082880 -0.000000 -1.000000 -0.000000
0.049729 -0.101937 0.082880 -0.000000 -1.000000 -0.000000
0.084045 -0.101937 0.082880 -0.000000 -1.000000 -0.000001
0.049729 -0.101937 0.082880 -0.000000 -1.000000 -0.000001
0.118362 -0.101937 0.082880 0.000000 -1.000000 -0.000001
0.152679 -0.101937 0.082880 -0.000000 -1.000000 -0.000001
-0.155780 -0.101260 -0.038617 -0.000001 -0.000000 1.000000
-0.121463 -0.101260 -0.038617 -0.000001 -0.000000 1.000000
-0.121463 -0.078179 -0.038617 -0.000001 -0.000000 1.000000
-0.155780 -0.078179 -0.038617 -0.000001 -0.000000 1.000000
-0.121463 -0.101260 -0.038617 -0.000000 0.000000 1.000000
-0.087146 -0.101260 -0.038617 -0.000000 0.000000 1.000000
-0.087146 -0.078179 -0.038617 -0.000000 0.000000 1.000000
-0.121463 -0.078179 -0.038617 -0.000000 0.000000 1.000000
-0.087146 -0.101260 -0.038617 -0.000001 0.000000 1.000000
-0.052830 -0.101260 -0.038617 -0.000001 0.000000 1.000000
-0.052830 -0.078179 -0.038617 -0.000001 0.000000 1.000000
-0.087146 -0.078179 -0.038617 -0.000001 0.000000 1.000000
-0.018513 -0.101260 -0.038616 -0.000001 0.000000 1.000000
-0.018513 -0.078179 -0.038616 -0.000001 0.000000 1.000000
0.015803 -0.101260 -0.038616 -0.000001 -0.000000 1.000000
0.015803 -0.078179 -0.038616 -0.000001 -0.000000 1.000000
0.050120 -0.101261 -0.038616 -0.000001 -0.000000 1.000000
0.050120 -0.078179 -0.038616 -0.000001 -0.000000 1.000000
0.084436 -0.101261 -0.038616 -0.000001 0.000000 1.000000
0.084436 -0.078179 -0.038616 -0.000001 0.000000 1.000000
0.118753 -0.101261 -0.038616 -0.000001 0.000000 1.000000
0.118753 -0.078179 -0.038616 -0.000001 0.000000 1.000000
0.153069 -0.101261 -0.038616 -0.000001 -0.000000 1.000000
0.153069 -0.078179 -0.038616 -0.000001 -0.000000 1.000000
-0.121463 -0.055097 -0.038617 -0.000001 0.000000 1.000000
-0.155780 -0.055097 -0.038617 -0.000001 0.000000 1.000000
-0.087147 -0.055097 -0.038617 -0.000000 -0.000000 1.000000
-0.121463 -0.055097 -0.038617 -0.000000 -0.000000 1.000000
-0.052830 -0.055097 -0.038617 -0.000001 -0.000000 1.000000
-0.087147 -0.055097 -0.038617 -0.000001 -0.000000 1.000000
-0.018513 -0.055097 -0.038616 -0.000001 -0.000000 1.000000
0.015803 -0.055097 -0.038616 -0.000001 -0.000000 1.000000
0.050120 -0.055097 -0.038616 -0.000001 0.000000 1.000000
0.084436 -0.055097 -0.038616 -0.000001 0.000000 1.000000
0.118753 -0.055097 -0.038616 -0.000001 -0.000000 1.000000
0.153069 -0.055097 -0.038616 -0.000001 0.000000 1.000000
-0.121463 -0.032016 -0.038617 -0.000001 0.000000 1.000000
-0.155780 -0.032016 -0.038617 -0.000001 0.000000 1.000000
-0.087146 -0.032016 -0.038617 -0.000000 0.000000 1.000000
-0.121463 -0.032016 -0.038617 -0.000000 0.000000 1.000000
-0.052830 -0.032016 -0.038617 -0.000001 0.000000 1.000000
-0.087146 -0.032016 -0.038617 -0.000001 0.000000 1.000000
-0.018513 -0.032016 -0.038616 -0.000001 -0.000000 1.000000
0.015803 -0.032016 -0.038616 -0.000001 0.000000 1.000000
0.050120 -0.032016 -0.038616 -0.000001 -0.000000 1.000000
0.084436 -0.032016 -0.038616 -0.000001 -0.000000 1.000000
0.118753 -0.032016 -0.038616 -0.000001 0.000000 1.000000
0.153069 -0.032016 -0.038616 -0.000001 0.000000 1.000000
-0.121463 -0.008934 -0.038617 -0.000001 0.000000 1.000000
-0.155780 -0.008934 -0.038617 -0.000001 0.000000 1.000000
-0.087147 -0.008934 -0.038617 -0.000000 -0.000000 1.000000
-0.121463 -0.008934 -0.038617 -0.000000 -0.000000 1.000000
-0.052830 -0.008934 -0.038617 -0.000001 0.000000 1.000000
-0.087147 -0.008934 -0.038617 -0.000001 0.000000 1.000000
-0.018513 -0.008934 -0.038616 -0.000001 0.000000 1.000000
0.015803 -0.008934 -0.038616 -0.000001 -0.000000 1.000000
0.050120 -0.008934 -0.038616 -0.000001 -0.000000 1.000000
0.084436 -0.008934 -0.038616 -0.000001 -0.000000 1.000000
0.118753 -0.008934 -0.038616 -0.000001 -0.000000 1.000000
0.153069 -0.008934 -0.038616 -0.000001 -0.000000 1.000000
-0.121463 0.014148 -0.038617 -0.000001 -0.000000 1.000000
-0.155780 0.014148 -0.038617 -0.000001 -0.000000 1.000000
-0.087147 0.014148 -0.038617 -0.000000 -0.000000 1.000000
-0.121463 0.014148 -0.038617 -0.000000 -0.000000 1.000000
-0.052830 0.014148 -0.038617 -0.000001 0.000000 1.000000
-0.087147 0.014148 -0.038617 -0.000001 0.000000 1.000000
-0.018513 0.014148 -0.038616 -0.000001 -0.000000 1.000000
0.015803 0.014148 -0.038616 -0.000001 -0.000000 1.000000
0.050120 0.014148 -0.038616 -0.000001 0.000000 1.000000
0.084436 0.014148 -0.038616 -0.000001 0.000000 1.000000
0.118753 0.014148 -0.038616 -0.000001 0.000000 1.000000
0.153069 0.014148 -0.038616 -0.000001 -0.000000 1.000000
-0.121463 0.037229 -0.038617 -0.000001 0.000000 1.000000
-0.155780 0.037229 -0.038617 -0.000001 0.000000 1.000000
-0.087147 0.037229 -0.038617 -0.000000 0.000000 1.000000
-0.121463 0.037229 -0.038617 -0.000000 0.000000 1.000000
-0.052830 0.037229 -0.038617 -0.000001 -0.000000 1.000000
-0.087147 0.037229 -0.038617 -0.000001 -0.000000 1.000000
-0.018513 0.037229 -0.038616 -0.000001 -0.000000 1.000000
0.015803 0.037229 -0.038616 -0.000001 0.000000 1.000000
0.050120 0.037229 -0.038616 -0.000001 -0.000000 1.000000
0.084436 0.037229 -0.038616 -0.000001 -0.000000 1.000000
0.118753 0.037229 -0.038616 -0.000001 -0.000000 1.000000
0.153069 0.037229 -0.038616 -0.000001 0.000000 1.000000
-0.121463 0.060311 -0.038617 -0.000001 0.000000 1.000000
-0.155780 0.060311 -0.038617 -0.000001 0.000000 1.000000
-0.087147 0.060311 -0.038617 -0.000000 -0.000000 1.000000
-0.121463 0.060311 -0.038617 -0.000000 -0.000000 1.000000
-0.052830 0.060311 -0.038617 -0.000001 -0.000000 1.000000
-0.087147 0.060311 -0.038617 -0.000001 -0.000000 1.000000
-0.018513 0.060311 -0.038616 -0.000001 0.000000 1.000000
0.015803 0.060311 -0.038616 -0.000001 0.000000 1.000000
0.050120 0.060311 -0.038616 -0.000001 -0.000000 1.000000
0.084436 0.060311 -0.038616 -0.000001 -0.000000 1.000000
0.118753 0.060311 -0.038616 -0.000001 0.000000 1.000000
0.153069 0.060311 -0.038616 -0.000001 0.000000 1.000000
-0.121463 0.083393 -0.038617 -0.000001 0.000000 1.000000
-0.155779 0.083393 -0.038617 -0.000001 0.000000 1.000000
-0.087147 0.083393 -0.038617 -0.000000 0.000000 1.000000
-0.121463 0.083393 -0.038617 -0.000000 0.000000 1.000000
-0.052830 0.083393 -0.038617 -0.000001 0.000000 1.000000
-0.087147 0.083393 -0.038617 -0.000001 0.000000 1.000000
-0.018514 0.083393 -0.038616 -0.000001 -0.000000 1.000000
0.015803 0.083393 -0.038616 -0.000001 -0.000000 1.000000
0.050120 0.083393 -0.038616 -0.000001 -0.000000 1.000000
0.084436 0.083393 -0.038616 -0.000001 -0.000000 1.000000
0.118753 0.083393 -0.038616 -0.000001 -0.000000 1.000000
0.153069 0.083393 -0.038616 -0.000001 -0.000000 1.000000
-0.121463 0.106474 -0.038617 -0.000001 -0.000000 1.000000
-0.155780 0.106474 -0.038617 -0.000001 -0.000000 1.000000
-0.087147 0.106474 -0.038617 -0.000000 0.000000 1.000000
-0.121463 0.106474 -0.038617 -0.000000 0.000000 1.000000
-0.052830 0.106474 -0.038617 -0.000001 -0.000000 1.000000
-0.087147 0.106474 -0.038617 -0.000001 -0.000000 1.000000
-0.018514 0.106474 -0.038616 -0.000001 -0.000000 1.000000
0.015803 0.106474 -0.038616 -0.000001 0.000000 1.000000
0.050120 0.106474 -0.038616 -0.000001 0.000000 1.000000
0.084436 0.106474 -0.038616 -0.000001 0.000000 1.000000
0.118753 0.106474 -0.038616 -0.000001 0.000000 1.000000
0.153069 0.106474 -0.038616 -0.000001 -0.000000 1.000000
-0.156931 0.105697 -0.039992 0.000000 -1.000000 -0.000000
-0.122614 0.105697 -0.039992 0.000000 -1.000000 -0.000000
-0.122614 0.105697 -0.026277 0.000000 -1.000000 -0.000000
-0.156931 0.105697 -0.026277 0.000000 -1.000000 -0.000000
-0.088298 0.105697 -0.039992 -0.000000 -1.000000 -0.000000
-0.088298 0.105697 -0.026277 -0.000000 -1.000000 -0.000000
-0.088298 0.105697 -0.039992 -0.000000 -1.000000 -0.000001
-0.053981 0.105697 -0.039992 -0.000000 -1.000000 -0.000001
-0.053981 0.105697 -0.026277 -0.000000 -1.000000 -0.000001
-0.088298 0.105697 -0.026277 -0.000000 -1.000000 -0.000001
-0.019665 0.105697 -0.039992 -0.000000 -1.000000 -0.000001
-0.019665 0.105697 -0.026277 -0.000000 -1.000000 -0.000001
-0.019665 0.105697 -0.039992 0.000000 -1.000000 -0.000000
0.014652 0.105697 -0.039992 0.000000 -1.000000 -0.000000
0.014652 0.105697 -0.026277 0.000000 -1.000000 -0.000000
-0.019665 0.105697 -0.026277 0.000000 -1.000000 -0.000000
0.048968 0.105697 -0.039992 -0.000000 -1.000000 -0.000000
0.048968 0.105697 -0.026276 -0.000000 -1.000000 -0.000000
0.083285 0.105697 -0.039992 -0.000000 -1.000000 -0.000000
0.083285 0.105697 -0.026276 -0.000000 -1.000000 -0.000000
0.117601 0.105697 -0.039992 0.000000 -1.000000 -0.000000
0.117601 0.105697 -0.026276 0.000000 -1.000000 -0.000000
0.117601 0.105697 -0.039992 -0.000000 -1.000000 -0.000001
0.151918 0.105697 -0.039992 -0.000000 -1.000000 -0.000001
0.151918 0.105697 -0.026276 -0.000000 -1.000000 -0.000001
0.117601 0.105697 -0.026276 -0.000000 -1.000000 -0.000001
-0.156931 0.105697 -0.026277 0.000000 -1.000000 -0.000001
-0.122614 0.105697 -0.026277 0.000000 -1.000000 -0.000001
-0.122614 0.105697 -0.012562 0.000000 -1.000000 -0.000001
-0.156931 0.105697 -0.012562 0.000000 -1.000000 -0.000001
-0.088298 0.105697 -0.012561 -0.000000 -1.000000 -0.000001
-0.053981 0.105697 -0.026277 -0.000000 -1.000000 0.000000
-0.053981 0.105697 -0.012561 -0.000000 -1.000000 0.000000
-0.088298 0.105697 -0.012561 -0.000000 -1.000000 0.000000
-0.019665 0.105697 -0.012561 -0.000000 -1.000000 -0.000001
-0.053981 0.105697 -0.012561 -0.000000 -1.000000 -0.000001
0.014652 0.105697 -0.026277 0.000000 -1.000000 -0.000001
0.014652 0.105697 -0.012561 0.000000 -1.000000 -0.000001
0.048968 0.105697 -0.026276 -0.000000 -1.000000 -0.000001
0.048968 0.105697 -0.012561 -0.000000 -1.000000 -0.000001
0.083285 0.105697 -0.012561 -0.000000 -1.000000 0.000000
0.048968 0.105697 -0.012561 -0.000000 -1.000000 0.000000
0.083285 0.105697 -0.026276 -0.000000 -1.000000 -0.000001
0.117601 0.105697 -0.012561 -0.000000 -1.000000 -0.000001
0.083285 0.105697 -0.012561 -0.000000 -1.000000 -0.000001
0.151918 0.105697 -0.012561 -0.000000 -1.000000 -0.000001
-0.156931 0.105697 -0.012562 0.000000 -1.000000 -0.000000
-0.122614 0.105697 -0.012562 0.000000 -1.000000 -0.000000
-0.122614 0.105697 0.001154 0.000000 -1.000000 -0.000000
-0.156931 0.105697 0.001154 0.000000 -1.000000 -0.000000
-0.088298 0.105697 0.001154 -0.000000 -1.000000 -0.000001
-0.122614 0.105697 0.001154 -0.000000 -1.000000 -0.000001
-0.053981 0.105697 0.001154 -0.000000 -1.000000 -0.000001
-0.019665 0.105697 -0.012561 -0.000000 -1.000000 -0.000000
-0.019665 0.105697 0.001154 -0.000000 -1.000000 -0.000000
-0.053981 0.105697 0.001154 -0.000000 -1.000000 -0.000000
0.014652 0.105697 -0.012561 0.000000 -1.000000 -0.000000
0.014652 0.105697 0.001154 0.000000 -1.000000 -0.000000
0.048968 0.105697 0.001154 -0.000000 -1.000000 -0.000001
0.014652 0.105697 0.001154 -0.000000 -1.000000 -0.000001
0.083285 0.105697 0.001154 -0.000000 -1.000000 -0.000001
0.117601 0.105697 -0.012561 -0.000000 -1.000000 -0.000000
0.117601 0.105697 0.001154 -0.000000 -1.000000 -0.000000
0.083285 0.105697 0.001154 -0.000000 -1.000000 -0.000000
0.151918 0.105697 -0.012561 -0.000000 -1.000000 -0.000000
0.151918 0.105697 0.001154 -0.000000 -1.000000 -0.000000
-0.156931 0.105697 0.001154 -0.000000 -1.000000 -0.000001
-0.122614 0.105697 0.014869 -0.000000 -1.000000 -0.000001
-0.156931 0.105697 0.014869 -0.000000 -1.000000 -0.000001
-0.088298 0.105697 0.014869 -0.000000 -1.000000 -0.000001
-0.088298 0.105697 0.001154 0.000000 -1.000000 -0.000000
-0.053981 0.105697 0.014869 0.000000 -1.000000 -0.000000
-0.088298 0.105697 0.014869 0.000000 -1.000000 -0.000000
-0.019665 0.105697 0.014869 -0.000000 -1.000000 -0.000000
-0.019665 0.105697 0.001154 -0.000000 -1.000000 -0.000001
0.014652 0.105697 0.014869 -0.000000 -1.000000 -0.000001
-0.019665 0.105697 0.014869 -0.000000 -1.000000 -0.000001
0.048968 0.105697 0.014869 -0.000000 -1.000000 -0.000001
0.048968 0.105697 0.001154 0.000000 -1.000000 -0.000000
0.083285 0.105697 0.014869 0.000000 -1.000000 -0.000000
0.048968 0.105697 0.014869 0.000000 -1.000000 -0.000000
0.117601 0.105697 0.014869 -0.000000 -1.000000 -0.000000
0.151918 0.105697 0.014869 -0.000000 -1.000000 -0.000000
-0.156931 0.105697 0.014869 -0.000000 -1.000000 0.000000
-0.122614 0.105697 0.014869 -0.000000 -1.000000 0.000000
-0.122614 0.105697 0.028584 -0.000000 -1.000000 0.000000
-0.156931 0.105697 0.028584 -0.000000 -1.000000 0.000000
-0.088298 0.105697 0.028584 -0.000000 -1.000000 -0.000001
-0.122614 0.105697 0.028584 -0.000000 -1.000000 -0.000001
-0.053981 0.105697 0.014869 0.000000 -1.000000 -0.000001
-0.053981 0.105697 0.028584 0.000000 -1.000000 -0.000001
-0.019665 0.105697 0.028584 -0.000000 -1.000000 -0.000001
0.014652 0.105697 0.014869 -0.000000 -1.000000 0.000000
0.014652 0.105697 0.028584 -0.000000 -1.000000 0.000000
-0.019665 0.105697 0.028584 -0.000000 -1.000000 0.000000
0.048968 0.105697 0.028584 -0.000000 -1.000000 -0.000001
0.014652 0.105697 0.028584 -0.000000 -1.000000 -0.000001
0.083285 0.105697 0.014869 0.000000 -1.000000 -0.000001
0.083285 0.105697 0.028584 0.000000 -1.000000 -0.000001
0.117601 0.105697 0.014869 -0.000000 -1.000000 -0.000001
0.117601 0.105697 0.028584 -0.000000 -1.000000 -0.000001
0.151918 0.105697 0.028584 0.000000 -1.000000 -0.000000
0.117601 0.105697 0.028584 0.000000 -1.000000 -0.000000
-0.122614 0.105697 0.042299 -0.000000 -1.000000 -0.000000
-0.156931 0.105697 0.042299 -0.000000 -1.000000 -0.000000
-0.088298 0.105697 0.028584 -0.000000 -1.000000 -0.000000
-0.088298 0.105697 0.042299 -0.000000 -1.000000 -0.000000
-0.053981 0.105697 0.028584 0.000000 -1.000000 -0.000000
-0.053981 0.105697 0.042299 0.000000 -1.000000 -0.000000
-0.019665 0.105697 0.042299 -0.000000 -1.000000 -0.000001
-0.053981 0.105697 0.042299 -0.000000 -1.000000 -0.000001
0.014652 0.105697 0.042299 -0.000000 -1.000000 -0.000001
0.048968 0.105697 0.028584 -0.000000 -1.000000 -0.000000
0.048968 0.105697 0.042299 -0.000000 -1.000000 -0.000000
0.014652 0.105697 0.042299 -0.000000 -1.000000 -0.000000
0.083285 0.105697 0.028584 0.000000 -1.000000 -0.000000
0.083285 0.105697 0.042299 0.000000 -1.000000 -0.000000
0.117601 0.105697 0.042299 -0.000000 -1.000000 -0.000001
0.083285 0.105697 0.042299 -0.000000 -1.000000 -0.000001
0.151918 0.105697 0.028584 0.000000 -1.000000 -0.000001
0.151918 0.105697 0.042299 0.000000 -1.000000 -0.000001
-0.156931 0.105697 0.042299 -0.000000 -1.000000 -0.000001
-0.122614 0.105697 0.042299 -0.000000 -1.000000 -0.000001
-0.122614 0.105697 0.056014 -0.000000 -1.000000 -0.000001
-0.156931 0.105697 0.056014 -0.000000 -1.000000 -0.000001
-0.088298 0.105697 0.056014 -0.000000 -1.000000 -0.000000
-0.122614 0.105697 0.056014 -0.000000 -1.000000 -0.000000
-0.088298 0.105697 0.042299 -0.000000 -1.000000 -0.000001
-0.053981 0.105697 0.056014 -0.000000 -1.000000 -0.000001
-0.088298 0.105697 0.056014 -0.000000 -1.000000 -0.000001
-0.019665 0.105697 0.056014 -0.000000 -1.000000 -0.000001
-0.019665 0.105697 0.042299 0.000000 -1.000000 -0.000000
0.014652 0.105697 0.056014 0.000000 -1.000000 -0.000000
-0.019665 0.105697 0.056014 0.000000 -1.000000 -0.000000
0.048968 0.105697 0.056014 -0.000000 -1.000000 -0.000000
0.048968 0.105697 0.042299 -0.000000 -1.000000 -0.000001
0.083285 0.105697 0.056014 -0.000000 -1.000000 -0.000001
0.048968 0.105697 0.056014 -0.000000 -1.000000 -0.000001
0.117601 0.105697 0.056014 -0.000000 -1.000000 -0.000001
0.117601 0.105697 0.042299 0.000000 -1.000000 -0.000000
0.151918 0.105697 0.042299 0.000000 -1.000000 -0.000000
0.151918 0.105697 0.056014 0.000000 -1.000000 -0.000000
0.117601 0.105697 0.056014 0.000000 -1.000000 -0.000000
-0.122614 0.105697 0.069729 -0.000000 -1.000000 -0.000001
-0.156931 0.105697 0.069729 -0.000000 -1.000000 -0.000001
-0.088298 0.105697 0.069729 -0.000000 -1.000000 -0.000001
-0.053981 0.105697 0.056014 -0.000000 -1.000000 0.000000
-0.053981 0.105697 0.069729 -0.000000 -1.000000 0.000000
-0.088298 0.105697 0.069729 -0.000000 -1.000000 0.000000
-0.019665 0.105697 0.069729 -0.000000 -1.000000 -0.000001
-0.053981 0.105697 0.069729 -0.000000 -1.000000 -0.000001
0.014652 0.105697 0.056014 0.000000 -1.000000 -0.000001
0.014652 0.105697 0.069729 0.000000 -1.000000 -0.000001
0.048968 0.105697 0.069729 -0.000000 -1.000000 -0.000001
0.083285 0.105697 0.056014 -0.000000 -1.000000 0.000000
0.083285 0.105697 0.069729 -0.000000 -1.000000 0.000000
0.048968 0.105697 0.069729 -0.000000 -1.000000 0.000000
0.117601 0.105697 0.069729 -0.000000 -1.000000 -0.000000
0.151918 0.105697 0.056014 -0.000000 -1.000000 -0.000001
0.151918 0.105697 0.069729 -0.000000 -1.000000 -0.000001
0.117601 0.105697 0.069729 -0.000000 -1.000000 -0.000001
-0.122614 0.105697 0.083444 -0.000000 -1.000000 -0.000001
-0.156931 0.105697 0.083444 -0.000000 -1.000000 -0.000001
-0.122614 0.105697 0.069729 0.000000 -1.000000 -0.000000
-0.088298 0.105697 0.083444 0.000000 -1.000000 -0.000000
-0.122614 0.105697 0.083444 0.000000 -1.000000 -0.000000
-0.053981 0.105697 0.083444 -0.000000 -1.000000 -0.000000
-0.019665 0.105697 0.069729 -0.000000 -1.000000 -0.000000
-0.019665 0.105697 0.083444 -0.000000 -1.000000 -0.000000
0.014652 0.105697 0.069729 0.000000 -1.000000 -0.000000
0.014652 0.105697 0.083444 0.000000 -1.000000 -0.000000
0.048968 0.105697 0.083444 -0.000000 -1.000000 -0.000001
0.014652 0.105697 0.083444 -0.000000 -1.000000 -0.000001
0.083285 0.105697 0.069729 -0.000000 -1.000000 -0.000001
0.083285 0.105697 0.083444 -0.000000 -1.000000 -0.000001
0.117601 0.105697 0.083444 -0.000000 -1.000000 -0.000000
0.083285 0.105697 0.083444 -0.000000 -1.000000 -0.000000
0.151918 0.105697 0.069729 -0.000000 -1.000000 0.000000
0.151918 0.105697 0.083444 -0.000000 -1.000000 0.000000
4 0 1 2 3
4 1 4 5 2
4 4 6 7 5
4 6 8 9 7
4 8 10 11 9
4 10 12 13 11
4 12 14 15 13
4 14 16 17 15
4 16 18 19 17
4 20 21 22 23
4 21 24 25 22
4 24 26 27 25
4 26 28 29 27
4 28 30 31 29
4 30 32 33 31
4 32 34 35 33
4 34 36 37 35
4 36 38 39 37
4 23 22 40 41
4 22 25 42 40
4 25 27 43 42
4 27 29 44 43
4 29 31 45 44
4 31 33 46 45
4 33 35 47 46
4 35 37 48 47
4 37 39 49 48
4 50 51 52 53
4 51 54 55 52
4 54 56 57 55
4 56 58 59 57
4 58 60 61 59
4 60 62 63 61
4 62 64 65 63
4 64 66 67 65
4 66 68 69 67
4 70 71 72 73
4 71 74 75 72
4 74 76 77 75
4 76 78 79 77
4 78 80 81 79
4 80 82 83 81
4 82 84 85 83
4 84 86 87 85
4 86 88 89 87
4 90 91 92 93
4 91 94 95 92
4 94 96 97 95
4 96 98 99 97
4 98 100 101 99
4 100 102 103 101
4 102 104 105 103
4 104 106 107 105
4 106 108 109 107
4 110 111 112 113
4 111 114 115 112
4 114 116 117 115
4 116 118 119 117
4 118 120 121 119
4 120 122 123 121
4 122 124 125 123
4 124 126 127 125
4 126 128 129 127
4 113 112 130 131
4 112 115 132 130
4 115 117 133 132
4 117 119 134 133
4 119 121 135 134
4 121 123 136 135
4 123 125 137 136
4 125 127 138 137
4 127 129 139 138
4 140 141 142 143
4 141 144 145 142
4 144 146 147 145
4 146 148 149 147
4 148 150 151 149
4 150 152 153 151
4 152 154 155 153
4 154 156 157 155
4 156 158 159 157
4 160 161 162 163
4 164 165 166 167
4 165 168 169 166
4 170 171 172 173
4 171 174 175 172
4 176 177 178 179
4 177 180 181 178
4 180 182 183 181
4 182 184 185 183
4 163 162 186 187
4 162 188 189 186
4 166 169 190 191
4 169 192 193 190
4 172 175 194 195
4 175 196 197 194
4 196 198 199 197
4 181 183 200 201
4 202 203 204 205
4 206 207 208 209
4 207 191 210 208
4 191 190 211 210
4 190 193 212 211
4 193 213 214 212
4 213 215 216 214
4 215 201 217 216
4 199 205 218 219
4 205 204 220 218
4 209 208 221 222
4 223 224 225 226
4 224 227 228 225
4 211 212 229 230
4 212 214 231 229
4 232 233 234 235
4 233 219 236 234
4 217 237 238 239
4 237 240 241 238
4 222 221 242 243
4 221 244 245 242
4 225 228 246 247
4 228 248 249 246
4 229 231 250 251
4 231 252 253 250
4 234 236 254 255
4 236 256 257 254
4 238 241 258 259
4 243 242 260 261
4 242 245 262 260
4 245 263 264 262
4 263 251 265 264
4 251 250 266 265
4 250 253 267 266
4 253 268 269 267
4 268 259 270 269
4 259 258 271 270
4 272 273 274 275
4 273 276 277 274
4 262 264 278 279
4 280 281 282 283
4 281 284 285 282
4 266 267 286 287
4 267 269 288 286
4 289 290 291 292
4 290 293 294 291
4 295 296 297 298
4 296 279 299 297
4 277 283 300 301
4 283 282 302 300
4 282 285 303 302
4 285 304 305 303
4 286 288 306 307
4 288 308 309 306
4 308 310 311 309
4 312 313 314 315
4 313 301 316 314
4 299 317 318 319
4 317 320 321 318
4 302 303 322 323
4 303 305 324 322
4 307 306 325 326
4 306 309 327 325
4 309 311 328 327
4 329 330 331 332
4 333 334 335 336
4 337 338 339 340
4 338 341 342 339
4 341 343 344 342
4 343 345 346 344
4 345 347 348 346
4 347 349 350 348
4 349 351 352 350
4 332 331 353 354
4 336 335 355 356
4 340 339 357 358
4 339 342 359 357
4 342 344 360 359
4 344 346 361 360
4 346 348 362 361
4 348 350 363 362
4 350 352 364 363
4 354 353 365 366
4 356 355 367 368
4 358 357 369 370
4 357 359 371 369
4 359 360 372 371
4 360 361 373 372
4 361 362 374 373
4 362 363 375 374
4 363 364 376 375
4 366 365 377 378
4 368 367 379 380
4 370 369 381 382
4 369 371 383 381
4 371 372 384 383
4 372 373 385 384
4 373 374 386 385
4 374 375 387 386
4 375 376 388 387
4 378 377 389 390
4 380 379 391 392
4 382 381 393 394
4 381 383 395 393
4 383 384 396 395
4 384 385 397 396
4 385 386 398 397
4 386 387 399 398
4 387 388 400 399
4 390 389 401 402
4 392 391 403 404
4 394 393 405 406
4 393 395 407 405
4 395 396 408 407
4 396 397 409 408
4 397 398 410 409
4 398 399 411 410
4 399 400 412 411
4 402 401 413 414
4 404 403 415 416
4 406 405 417 418
4 405 407 419 417
4 407 408 420 419
4 408 409 421 420
4 409 410 422 421
4 410 411 423 422
4 411 412 424 423
4 414 413 425 426
4 416 415 427 428
4 418 417 429 430
4 417 419 431 429
4 419 420 432 431
4 420 421 433 432
4 421 422 434 433
4 422 423 435 434
4 423 424 436 435
4 426 425 437 438
4 428 427 439 440
4 430 429 441 442
4 429 431 443 441
4 431 432 444 443
4 432 433 445 444
4 433 434 446 445
4 434 435 447 446
4 435 436 448 447
4 449 450 451 452
4 450 453 454 451
4 455 456 457 458
4 456 459 460 457
4 461 462 463 464
4 462 465 466 463
4 465 467 468 466
4 467 469 470 468
4 471 472 473 474
4 475 476 477 478
4 476 458 479 477
4 454 480 481 482
4 457 460 483 484
4 460 485 486 483
4 485 487 488 486
4 466 468 489 490
4 491 474 492 493
4 474 473 494 492
4 495 496 497 498
4 477 479 499 500
4 479 484 501 499
4 481 502 503 504
4 502 505 506 503
4 486 488 507 508
4 488 493 509 507
4 489 510 511 512
4 510 513 514 511
4 515 500 516 517
4 500 499 518 516
4 519 504 520 521
4 504 503 522 520
4 523 508 524 525
4 508 507 526 524
4 527 512 528 529
4 512 511 530 528
4 511 514 531 530
4 532 533 534 535
4 516 518 536 537
4 518 538 539 536
4 538 525 540 539
4 522 541 542 543
4 524 526 544 545
4 526 546 547 544
4 546 548 549 547
4 530 531 550 551
4 535 534 552 553
4 534 554 555 552
4 554 556 557 555
4 539 540 558 559
4 540 545 560 558
4 542 561 562 563
4 561 564 565 562
4 547 549 566 567
4 549 568 569 566
4 570 571 572 573
4 552 555 574 575
4 576 559 577 578
4 559 558 579 577
4 580 563 581 582
4 563 562 583 581
4 584 567 585 586
4 567 566 587 585
4 588 589 590 591
4 573 572 592 593
4 572 578 594 592
4 574 595 596 597
4 577 579 598 599
4 579 600 601 598
4 600 586 602 601
4 583 603 604 605
4 603 591 606 604
4 587 607 608 609
4 593 592 610 611
4 612 597 613 614
4 597 596 615 613
4 596 616 617 615
4 616 618 619 617
4 601 602 620 621
4 602 622 623 620
4 604 606 624 625
4 606 626 627 624
